<svg width="259" height="259" xmlns="http://www.w3.org/2000/svg" xmlns:xlink="http://www.w3.org/1999/xlink" overflow="hidden"><defs><clipPath id="clip0"><rect x="914" y="68" width="259" height="259"/></clipPath></defs><g clip-path="url(#clip0)" transform="translate(-914 -68)"><path d="M990.081 250.919C989.542 251.728 989.002 252.807 989.002 254.156 989.002 257.124 991.43 259.552 994.398 259.552 996.286 259.552 997.905 258.743 998.715 257.394 1008.97 243.904 1025.15 235.541 1043.5 235.541 1061.85 235.541 1077.76 243.904 1088.29 257.394 1089.36 258.743 1090.98 259.552 1092.6 259.552 1095.57 259.552 1098 257.124 1098 254.156 1098 253.077 1097.73 251.998 1096.92 250.919 1084.51 235.001 1065.35 224.479 1043.5 224.479 1021.65 224.479 1002.49 235.001 990.081 250.919Z"/><path d="M1102.85 181.312C1102.85 190.253 1095.61 197.5 1086.67 197.5 1077.73 197.5 1070.48 190.253 1070.48 181.312 1070.48 172.372 1077.73 165.125 1086.67 165.125 1095.61 165.125 1102.85 172.372 1102.85 181.312Z"/><path d="M1016.52 181.312C1016.52 190.253 1009.27 197.5 1000.33 197.5 991.393 197.5 984.146 190.253 984.146 181.312 984.146 172.372 991.393 165.125 1000.33 165.125 1009.27 165.125 1016.52 172.372 1016.52 181.312Z"/><path d="M1043.5 105.771C1093.95 105.771 1135.23 147.049 1135.23 197.5 1135.23 247.951 1093.95 289.229 1043.5 289.229 993.049 289.229 951.771 247.951 951.771 197.5 951.771 147.049 993.049 105.771 1043.5 105.771M1043.5 94.9792C986.844 94.9792 940.979 140.844 940.979 197.5 940.979 254.156 986.844 300.021 1043.5 300.021 1100.16 300.021 1146.02 254.156 1146.02 197.5 1146.02 140.844 1100.16 94.9792 1043.5 94.9792L1043.5 94.9792Z"/></g></svg>