<svg width="259" height="259" xmlns="http://www.w3.org/2000/svg" xmlns:xlink="http://www.w3.org/1999/xlink" overflow="hidden"><defs><clipPath id="clip0"><rect x="914" y="394" width="259" height="259"/></clipPath></defs><g clip-path="url(#clip0)" transform="translate(-914 -394)"><path d="M1016.52 514.597C1016.52 523.537 1009.27 530.784 1000.33 530.784 991.393 530.784 984.146 523.537 984.146 514.597 984.146 505.657 991.393 498.409 1000.33 498.409 1009.27 498.409 1016.52 505.657 1016.52 514.597Z"/><path d="M995.747 488.697C1004.11 488.697 1016.25 486.269 1025.96 474.938 1027.85 472.779 1027.58 469.272 1025.42 467.383 1023.27 465.495 1019.76 465.765 1017.87 467.923 1005.73 481.682 989.272 477.366 988.463 477.096 985.495 476.286 982.527 477.905 981.718 480.873 980.908 483.841 982.527 486.808 985.225 487.618 985.765 487.348 989.811 488.697 995.747 488.697Z"/><path d="M1043.5 559.382C1024.61 559.382 1008.43 570.174 1000.33 585.552 1013.28 579.077 1027.85 575.57 1043.5 575.57 1059.15 575.57 1073.72 579.347 1086.67 585.552 1078.57 569.904 1062.39 559.382 1043.5 559.382Z"/><path d="M1105.28 480.603C1104.47 477.635 1101.51 476.017 1098.54 476.826 1097.73 477.096 1081 481.682 1069.13 467.653 1067.24 465.495 1063.73 465.225 1061.58 467.114 1059.42 469.002 1059.15 472.509 1061.04 474.668 1070.75 485.999 1082.89 488.427 1091.25 488.427 1097.19 488.427 1101.24 487.348 1101.78 487.078 1104.47 486.539 1106.09 483.571 1105.28 480.603Z"/><path d="M1102.85 514.597C1102.85 523.537 1095.61 530.784 1086.67 530.784 1077.73 530.784 1070.48 523.537 1070.48 514.597 1070.48 505.657 1077.73 498.409 1086.67 498.409 1095.61 498.409 1102.85 505.657 1102.85 514.597Z"/><path d="M1043.5 434.469C1093.95 434.469 1135.23 475.747 1135.23 526.198 1135.23 576.649 1093.95 617.927 1043.5 617.927 993.049 617.927 951.771 576.649 951.771 526.198 951.771 475.747 993.049 434.469 1043.5 434.469M1043.5 423.677C986.844 423.677 940.979 469.542 940.979 526.198 940.979 582.854 986.844 628.719 1043.5 628.719 1100.16 628.719 1146.02 582.854 1146.02 526.198 1146.02 469.542 1100.16 423.677 1043.5 423.677L1043.5 423.677Z"/></g></svg>