<svg width="260" height="259" xmlns="http://www.w3.org/2000/svg" xmlns:xlink="http://www.w3.org/1999/xlink" overflow="hidden"><defs><clipPath id="clip0"><rect x="99" y="68" width="260" height="259"/></clipPath></defs><g clip-path="url(#clip0)" transform="translate(-99 -68)"><path d="M159.177 169.969 99.8229 169.969C96.8552 169.969 94.4271 172.397 94.4271 175.365 94.4271 178.332 96.8552 180.76 99.8229 180.76L159.177 180.76C162.145 180.76 164.573 178.332 164.573 175.365 164.573 172.397 162.145 169.969 159.177 169.969Z" transform="matrix(1.00386 0 0 1 99 68)"/><path d="M102.521 96.3156C105.489 96.3156 107.917 93.8875 107.917 90.9198 107.917 87.9521 105.489 85.524 102.521 85.524L70.1458 85.524C67.1781 85.524 64.75 87.9521 64.75 90.9198 64.75 93.8875 67.1781 96.3156 70.1458 96.3156L102.521 96.3156Z" transform="matrix(1.00386 0 0 1 99 68)"/><path d="M102.521 120.597C102.521 129.537 95.2734 136.784 86.3333 136.784 77.3932 136.784 70.1458 129.537 70.1458 120.597 70.1458 111.657 77.3932 104.409 86.3333 104.409 95.2734 104.409 102.521 111.657 102.521 120.597Z" transform="matrix(1.00386 0 0 1 99 68)"/><path d="M188.854 85.524 156.479 85.524C153.511 85.524 151.083 87.9521 151.083 90.9198 151.083 93.8875 153.511 96.3156 156.479 96.3156L188.854 96.3156C191.822 96.3156 194.25 93.8875 194.25 90.9198 194.25 87.9521 191.822 85.524 188.854 85.524Z" transform="matrix(1.00386 0 0 1 99 68)"/><path d="M188.854 120.597C188.854 129.537 181.607 136.784 172.667 136.784 163.727 136.784 156.479 129.537 156.479 120.597 156.479 111.657 163.727 104.409 172.667 104.409 181.607 104.409 188.854 111.657 188.854 120.597Z" transform="matrix(1.00386 0 0 1 99 68)"/><path d="M129.5 37.7708C179.951 37.7708 221.229 79.049 221.229 129.5 221.229 179.951 179.951 221.229 129.5 221.229 79.049 221.229 37.7708 179.951 37.7708 129.5 37.7708 79.049 79.049 37.7708 129.5 37.7708M129.5 26.9792C72.8438 26.9792 26.9792 72.8438 26.9792 129.5 26.9792 186.156 72.8438 232.021 129.5 232.021 186.156 232.021 232.021 186.156 232.021 129.5 232.021 72.8438 186.156 26.9792 129.5 26.9792L129.5 26.9792Z" transform="matrix(1.00386 0 0 1 99 68)"/></g></svg>