<svg width="259" height="259" xmlns="http://www.w3.org/2000/svg" xmlns:xlink="http://www.w3.org/1999/xlink" overflow="hidden"><defs><clipPath id="clip0"><rect x="99" y="394" width="259" height="259"/></clipPath></defs><g clip-path="url(#clip0)" transform="translate(-99 -394)"><path d="M201.521 507.312C201.521 516.253 194.273 523.5 185.333 523.5 176.393 523.5 169.146 516.253 169.146 507.312 169.146 498.372 176.393 491.125 185.333 491.125 194.273 491.125 201.521 498.372 201.521 507.312Z"/><path d="M287.854 507.312C287.854 516.253 280.607 523.5 271.667 523.5 262.727 523.5 255.479 516.253 255.479 507.312 255.479 498.372 262.727 491.125 271.667 491.125 280.607 491.125 287.854 498.372 287.854 507.312Z"/><path d="M277.602 558.573C275.714 558.573 274.095 559.382 273.285 560.731 263.033 574.221 246.846 582.584 228.5 582.584 210.154 582.584 194.236 574.221 183.715 560.731 182.635 559.382 181.017 558.573 179.398 558.573 176.43 558.573 174.002 561.001 174.002 563.969 174.002 565.048 174.272 566.127 175.081 567.206 187.492 583.394 206.647 593.646 228.5 593.646 250.353 593.646 269.508 583.394 281.919 567.206 282.458 566.397 282.998 565.318 282.998 563.969 282.998 561.001 280.57 558.573 277.602 558.573Z"/><path d="M228.5 431.771C278.951 431.771 320.229 473.049 320.229 523.5 320.229 573.951 278.951 615.229 228.5 615.229 178.049 615.229 136.771 573.951 136.771 523.5 136.771 473.049 178.049 431.771 228.5 431.771M228.5 420.979C171.844 420.979 125.979 466.844 125.979 523.5 125.979 580.156 171.844 626.021 228.5 626.021 285.156 626.021 331.021 580.156 331.021 523.5 331.021 466.844 285.156 420.979 228.5 420.979L228.5 420.979Z"/></g></svg>