<svg width="342" height="341" xmlns="http://www.w3.org/2000/svg" xmlns:xlink="http://www.w3.org/1999/xlink" overflow="hidden"><defs><clipPath id="clip0"><rect x="460" y="190" width="342" height="341"/></clipPath></defs><g clip-path="url(#clip0)" transform="translate(-460 -190)"><path d="M248.646 149.188C248.646 160.958 239.104 170.5 227.333 170.5 215.563 170.5 206.021 160.958 206.021 149.188 206.021 137.417 215.563 127.875 227.333 127.875 239.104 127.875 248.646 137.417 248.646 149.188Z" transform="matrix(1.00293 0 0 1 460 190)"/><path d="M134.979 149.188C134.979 160.958 125.437 170.5 113.667 170.5 101.896 170.5 92.3542 160.958 92.3542 149.188 92.3542 137.417 101.896 127.875 113.667 127.875 125.437 127.875 134.979 137.417 134.979 149.188Z" transform="matrix(1.00293 0 0 1 460 190)"/><path d="M170.5 220.229 90.5781 220.229C105.142 249.711 135.334 269.958 170.5 269.958 205.666 269.958 235.858 249.711 250.422 220.229L170.5 220.229Z" transform="matrix(1.00293 0 0 1 460 190)"/><path d="M170.5 49.7292C236.924 49.7292 291.271 104.076 291.271 170.5 291.271 236.924 236.924 291.271 170.5 291.271 104.076 291.271 49.7292 236.924 49.7292 170.5 49.7292 104.076 104.076 49.7292 170.5 49.7292M170.5 35.5208C95.9062 35.5208 35.5208 95.9062 35.5208 170.5 35.5208 245.094 95.9062 305.479 170.5 305.479 245.094 305.479 305.479 245.094 305.479 170.5 305.479 95.9062 245.094 35.5208 170.5 35.5208L170.5 35.5208Z" transform="matrix(1.00293 0 0 1 460 190)"/></g></svg>